<svg width="18" height="25" viewBox="0 0 18 25" fill="none" xmlns="http://www.w3.org/2000/svg">
	<g filter="url(#filter0_d_410_6214)">
		<path d="M13.6612 0.127603L11.5011 0.125122C9.0732 0.125122 7.50519 1.74366 7.50519 4.24649V6.14781H5.33268C5.14516 6.14781 4.99219 6.30036 4.99219 6.49136V9.24473C4.99219 9.432 5.14516 9.5858 5.33268 9.5858H7.50519V16.5362C7.50519 16.726 7.65693 16.8748 7.84445 16.8748H10.6794C10.867 16.8748 11.0187 16.726 11.0187 16.5362V9.5858H13.5601C13.7464 9.5858 13.8993 9.432 13.8993 9.24473V6.49136C13.8993 6.39834 13.8636 6.31276 13.8007 6.24951C13.7353 6.18377 13.6501 6.14781 13.5601 6.14781H11.0187V4.53795C11.0187 3.76279 11.2025 3.37087 12.2055 3.37087H13.6612C13.8488 3.37087 14.0005 3.21708 14.0005 3.02856V0.469913C14.0005 0.280154 13.8488 0.127603 13.6612 0.127603Z" fill="#E9862A" />
	</g>
	<defs>
		<filter id="filter0_d_410_6214" x="0.992188" y="0.125122" width="17.0078" height="24.7496" filterUnits="userSpaceOnUse" color-interpolation-filters="sRGB">
			<!-- <feFlood flood-opacity="0" result="BackgroundImageFix" />
			<feColorMatrix in="SourceAlpha" type="matrix" values="0 0 0 0 0 0 0 0 0 0 0 0 0 0 0 0 0 0 127 0" result="hardAlpha" />
			<feOffset dy="4" />
			<feGaussianBlur stdDeviation="2" /> -->
			<feComposite in2="hardAlpha" operator="out" />
			<feColorMatrix type="matrix" values="0 0 0 0 0 0 0 0 0 0 0 0 0 0 0 0 0 0 0.25 0" />
			<feBlend mode="normal" in2="BackgroundImageFix" result="effect1_dropShadow_410_6214" />
			<feBlend mode="normal" in="SourceGraphic" in2="effect1_dropShadow_410_6214" result="shape" />
		</filter>
	</defs>
</svg>
